<svg width="113" height="47" viewBox="0 0 113 47" fill="none" xmlns="http://www.w3.org/2000/svg">
<path d="M0.216 26.784C0.768 27.48 1.416 28.092 2.16 28.62C2.928 29.148 3.768 29.616 4.68 30.024C4.8 29.304 4.956 28.404 5.148 27.324C5.34 26.22 5.568 24.996 5.832 23.652C6.096 22.308 6.384 20.868 6.696 19.332C7.008 17.796 7.32 16.236 7.632 14.652H6.912C6.672 14.652 6.408 14.592 6.12 14.472C5.856 14.328 5.616 14.112 5.4 13.824C5.184 13.512 5.004 13.116 4.86 12.636C4.716 12.156 4.644 11.58 4.644 10.908C4.836 10.86 5.256 10.824 5.904 10.8C6.552 10.752 7.38 10.728 8.388 10.728C8.652 9.432 8.904 8.184 9.144 6.984C9.384 5.76 9.612 4.608 9.828 3.528C8.556 3.552 7.356 3.612 6.228 3.708C5.124 3.78 4.332 3.828 3.852 3.852H3.672C3.432 3.852 3.192 3.828 2.952 3.78C2.712 3.708 2.472 3.588 2.232 3.42C1.992 3.228 1.752 2.952 1.512 2.592C1.272 2.232 1.032 1.752 0.792 1.152C1.224 0.960001 1.812 0.804002 2.556 0.684002C3.3 0.540001 4.104 0.42 4.968 0.323999C5.832 0.204 6.708 0.12 7.596 0.0720005C8.508 0.0239997 9.324 0 10.044 0C12.948 0 15.336 0.191999 17.208 0.576C19.104 0.96 20.604 1.476 21.708 2.124C22.836 2.772 23.616 3.528 24.048 4.392C24.504 5.232 24.732 6.12 24.732 7.056C24.732 7.488 24.504 7.932 24.048 8.388C23.616 8.844 23.052 9.276 22.356 9.684C21.66 10.092 20.88 10.476 20.016 10.836C19.176 11.172 18.348 11.448 17.532 11.664C19.092 12.048 20.592 12.576 22.032 13.248C23.496 13.92 24.792 14.808 25.92 15.912C27.072 16.992 27.984 18.312 28.656 19.872C29.352 21.432 29.7 23.28 29.7 25.416C29.7 26.904 29.316 28.308 28.548 29.628C27.804 30.948 26.748 32.1 25.38 33.084C24.036 34.092 22.44 34.884 20.592 35.46C18.744 36.06 16.74 36.36 14.58 36.36C12.492 36.36 10.56 36.168 8.784 35.784C7.008 35.4 5.46 34.86 4.14 34.164C2.844 33.468 1.824 32.616 1.08 31.608C0.36 30.6 0 29.484 0 28.26C0 27.804 0.0720001 27.312 0.216 26.784ZM14.04 31.86C15.96 31.86 17.712 31.656 19.296 31.248C20.904 30.816 22.308 30.228 23.508 29.484C24.708 28.74 25.68 27.876 26.424 26.892C27.168 25.884 27.648 24.792 27.864 23.616C27.624 22.128 26.988 20.844 25.956 19.764C24.948 18.684 23.7 17.784 22.212 17.064C20.748 16.344 19.128 15.792 17.352 15.408C15.576 15.024 13.812 14.784 12.06 14.688C11.844 15.576 11.628 16.464 11.412 17.352C11.196 18.216 10.992 19.032 10.8 19.8C10.632 20.544 10.476 21.228 10.332 21.852C10.188 22.452 10.08 22.944 10.008 23.328C9.648 24.984 9.144 26.424 8.496 27.648C7.872 28.848 7.056 29.82 6.048 30.564C7.344 31.02 8.676 31.356 10.044 31.572C11.412 31.764 12.744 31.86 14.04 31.86ZM13.14 10.26C15.204 9.708 17.064 9.096 18.72 8.424C20.376 7.752 21.864 6.9 23.184 5.868C22.032 5.124 20.724 4.584 19.26 4.248C17.796 3.888 16.092 3.66 14.148 3.564C14.292 3.804 14.364 4.08 14.364 4.392C14.364 4.536 14.328 4.788 14.256 5.148C14.208 5.484 14.124 5.916 14.004 6.444C13.908 6.948 13.776 7.524 13.608 8.172C13.464 8.82 13.308 9.516 13.14 10.26Z" fill="white"/>
<path d="M39.431 14.364C39.887 14.364 40.355 14.4 40.835 14.472C41.315 14.52 41.747 14.604 42.131 14.724C42.539 14.82 42.875 14.94 43.139 15.084C43.403 15.228 43.535 15.372 43.535 15.516C43.535 15.66 43.451 15.816 43.283 15.984C43.115 16.128 42.899 16.296 42.635 16.488C42.371 16.68 42.059 16.908 41.699 17.172C41.339 17.436 40.979 17.736 40.619 18.072C40.307 18.36 39.923 18.768 39.467 19.296C39.035 19.824 38.615 20.46 38.207 21.204C37.799 21.948 37.451 22.812 37.163 23.796C36.899 24.756 36.767 25.836 36.767 27.036C36.767 27.9 36.827 28.644 36.947 29.268C37.067 29.868 37.199 30.36 37.343 30.744C37.511 31.128 37.667 31.404 37.811 31.572C37.979 31.74 38.087 31.824 38.135 31.824C38.375 31.824 38.735 31.644 39.215 31.284C39.695 30.924 40.175 30.384 40.655 29.664C41.159 28.92 41.591 27.996 41.951 26.892C42.335 25.788 42.527 24.504 42.527 23.04V22.428C42.119 22.212 41.783 21.924 41.519 21.564C41.255 21.204 41.123 20.76 41.123 20.232C41.123 19.68 41.279 19.236 41.591 18.9C41.903 18.564 42.299 18.396 42.779 18.396C43.403 18.396 43.919 18.6 44.327 19.008C44.735 19.416 45.035 20.124 45.227 21.132C46.307 21.132 47.243 20.952 48.035 20.592C48.851 20.208 49.523 19.8 50.051 19.368C50.603 18.912 51.011 18.504 51.275 18.144C51.563 17.76 51.719 17.568 51.743 17.568C51.935 17.568 52.055 17.7 52.103 17.964C52.175 18.228 52.211 18.468 52.211 18.684C52.211 19.38 51.983 20.004 51.527 20.556C51.095 21.108 50.543 21.576 49.871 21.96C49.223 22.32 48.491 22.608 47.675 22.824C46.883 23.016 46.127 23.112 45.407 23.112V23.58C45.407 25.068 45.191 26.424 44.759 27.648C44.327 28.872 43.763 29.928 43.067 30.816C42.395 31.68 41.639 32.352 40.799 32.832C39.983 33.312 39.179 33.552 38.387 33.552C38.027 33.552 37.487 33.42 36.767 33.156C36.071 32.916 35.363 32.496 34.643 31.896C33.947 31.296 33.335 30.492 32.807 29.484C32.303 28.452 32.051 27.168 32.051 25.632C32.051 24.048 32.327 22.572 32.879 21.204C33.455 19.836 34.127 18.648 34.895 17.64C35.687 16.632 36.503 15.84 37.343 15.264C38.183 14.664 38.879 14.364 39.431 14.364Z" fill="white"/>
<path d="M56.2005 14.364C56.6565 14.364 57.1245 14.4 57.6045 14.472C58.0845 14.52 58.5165 14.604 58.9005 14.724C59.3085 14.82 59.6445 14.94 59.9085 15.084C60.1725 15.228 60.3045 15.372 60.3045 15.516C60.3045 15.66 60.2205 15.816 60.0525 15.984C59.8845 16.128 59.6685 16.296 59.4045 16.488C59.1405 16.68 58.8285 16.908 58.4685 17.172C58.1085 17.436 57.7485 17.736 57.3885 18.072C57.0765 18.36 56.6925 18.768 56.2365 19.296C55.8045 19.824 55.3845 20.46 54.9765 21.204C54.5685 21.948 54.2205 22.812 53.9325 23.796C53.6685 24.756 53.5365 25.836 53.5365 27.036C53.5365 27.9 53.5965 28.644 53.7165 29.268C53.8365 29.868 53.9685 30.36 54.1125 30.744C54.2805 31.128 54.4365 31.404 54.5805 31.572C54.7485 31.74 54.8565 31.824 54.9045 31.824C55.1445 31.824 55.5045 31.644 55.9845 31.284C56.4645 30.924 56.9445 30.384 57.4245 29.664C57.9285 28.92 58.3605 27.996 58.7205 26.892C59.1045 25.788 59.2965 24.504 59.2965 23.04V22.608C58.8885 22.368 58.5525 22.056 58.2885 21.672C58.0245 21.288 57.8925 20.808 57.8925 20.232C57.8925 19.68 58.0485 19.236 58.3605 18.9C58.6725 18.564 59.0685 18.396 59.5485 18.396C60.1725 18.396 60.6885 18.6 61.0965 19.008C61.5045 19.416 61.8045 20.124 61.9965 21.132C62.6685 21.132 63.2685 21.012 63.7965 20.772C64.3485 20.532 64.8285 20.232 65.2365 19.872C65.6685 19.488 66.0405 19.08 66.3525 18.648C66.6885 18.216 66.9645 17.82 67.1805 17.46C67.3965 17.076 67.5645 16.752 67.6845 16.488C67.8045 16.224 67.8765 16.08 67.9005 16.056C68.0925 16.056 68.2125 16.164 68.2605 16.38C68.3325 16.596 68.3685 16.788 68.3685 16.956C68.3685 17.388 68.2365 17.94 67.9725 18.612C67.7085 19.284 67.3125 19.944 66.7845 20.592C66.2565 21.24 65.6085 21.816 64.8405 22.32C64.0725 22.8 63.1845 23.088 62.1765 23.184V23.58C62.1765 25.068 61.9605 26.424 61.5285 27.648C61.0965 28.872 60.5325 29.928 59.8365 30.816C59.1645 31.68 58.4085 32.352 57.5685 32.832C56.7525 33.312 55.9485 33.552 55.1565 33.552C54.7965 33.552 54.2565 33.42 53.5365 33.156C52.8405 32.916 52.1325 32.496 51.4125 31.896C50.7165 31.296 50.1045 30.492 49.5765 29.484C49.0725 28.452 48.8205 27.168 48.8205 25.632C48.8205 24.048 49.0965 22.572 49.6485 21.204C50.2245 19.836 50.8965 18.648 51.6645 17.64C52.4565 16.632 53.2725 15.84 54.1125 15.264C54.9525 14.664 55.6485 14.364 56.2005 14.364Z" fill="white"/>
<path d="M65.446 29.016C65.446 27.024 65.626 24.9 65.986 22.644C66.37 20.388 66.874 18.096 67.498 15.768C68.122 13.416 68.866 11.064 69.73 8.712C70.594 6.36 71.506 4.092 72.466 1.908C72.898 1.956 73.306 2.076 73.69 2.268C74.074 2.436 74.41 2.652 74.698 2.916C74.986 3.156 75.214 3.432 75.382 3.744C75.55 4.032 75.634 4.344 75.634 4.68C75.634 4.944 75.478 5.52 75.166 6.408C74.878 7.272 74.506 8.328 74.05 9.576C73.618 10.824 73.15 12.204 72.646 13.716C72.166 15.228 71.734 16.776 71.35 18.36C71.662 18 72.022 17.592 72.43 17.136C72.862 16.68 73.318 16.26 73.798 15.876C74.302 15.468 74.83 15.132 75.382 14.868C75.958 14.604 76.534 14.472 77.11 14.472C77.518 14.472 77.95 14.58 78.406 14.796C78.886 15.012 79.318 15.3 79.702 15.66C80.11 15.996 80.446 16.368 80.71 16.776C80.974 17.184 81.106 17.58 81.106 17.964C81.106 18.78 80.986 19.584 80.746 20.376C80.506 21.168 80.182 21.912 79.774 22.608C79.366 23.28 78.886 23.88 78.334 24.408C77.806 24.936 77.23 25.344 76.606 25.632C76.75 26.016 76.882 26.436 77.002 26.892C77.122 27.348 77.278 27.864 77.47 28.44C78.262 30.984 79.078 33.048 79.918 34.632C80.782 36.24 81.694 37.428 82.654 38.196C82.87 38.364 83.11 38.508 83.374 38.628C83.662 38.772 83.95 38.904 84.238 39.024C84.526 39.144 84.802 39.264 85.066 39.384C85.33 39.528 85.558 39.684 85.75 39.852C85.654 40.068 85.354 40.26 84.85 40.428C84.37 40.62 83.866 40.716 83.338 40.716C82.042 40.716 80.89 40.416 79.882 39.816C78.874 39.24 77.974 38.46 77.182 37.476C76.414 36.492 75.742 35.352 75.166 34.056C74.59 32.784 74.086 31.464 73.654 30.096C73.318 29.016 73.03 28.128 72.79 27.432C72.574 26.712 72.37 26.124 72.178 25.668C71.986 25.212 71.794 24.84 71.602 24.552C71.434 24.264 71.242 24.012 71.026 23.796C71.218 23.484 71.482 23.256 71.818 23.112C72.178 22.944 72.55 22.8 72.934 22.68C74.302 22.296 75.334 21.552 76.03 20.448C76.75 19.32 77.11 18.024 77.11 16.56C75.79 16.896 74.638 17.556 73.654 18.54C72.67 19.524 71.854 20.688 71.206 22.032C70.582 23.376 70.102 24.828 69.766 26.388C69.454 27.924 69.274 29.412 69.226 30.852C69.202 31.668 69.01 32.232 68.65 32.544C68.314 32.856 67.81 33.012 67.138 33.012C66.778 33.012 66.478 32.952 66.238 32.832C66.022 32.712 65.854 32.496 65.734 32.184C65.614 31.872 65.53 31.464 65.482 30.96C65.458 30.456 65.446 29.808 65.446 29.016Z" fill="white"/>
<path d="M82.5345 27.288C82.5345 24.456 83.0025 20.832 83.9385 16.416C84.8985 11.976 86.2425 7.008 87.9705 1.512C88.4025 1.512 88.8225 1.572 89.2305 1.692C89.6625 1.788 90.0345 1.932 90.3465 2.124C90.6825 2.292 90.9465 2.508 91.1385 2.772C91.3305 3.036 91.4265 3.312 91.4265 3.6C91.4265 4.104 91.3065 4.908 91.0665 6.012C90.8505 7.092 90.5625 8.364 90.2025 9.828C89.8665 11.268 89.4945 12.828 89.0865 14.508C88.7025 16.188 88.3305 17.88 87.9705 19.584C87.6345 21.264 87.3465 22.896 87.1065 24.48C86.8905 26.064 86.7825 27.48 86.7825 28.728C86.7825 29.28 86.8185 29.796 86.8905 30.276C86.9865 30.756 87.1305 31.14 87.3225 31.428C87.8265 31.044 88.3065 30.588 88.7625 30.06C89.2425 29.508 89.6865 28.944 90.0945 28.368C90.5265 27.768 90.9105 27.156 91.2465 26.532C91.6065 25.908 91.9305 25.32 92.2185 24.768C92.3145 24.576 92.5065 24.48 92.7945 24.48C93.0825 24.48 93.3465 24.588 93.5865 24.804C93.8505 25.02 93.9225 25.26 93.8025 25.524C93.4425 26.268 93.0105 27.108 92.5065 28.044C92.0025 28.956 91.4625 29.82 90.8865 30.636C90.3105 31.428 89.7105 32.1 89.0865 32.652C88.4625 33.204 87.8505 33.48 87.2505 33.48C86.6265 33.48 86.0265 33.312 85.4505 32.976C84.8985 32.616 84.4065 32.148 83.9745 31.572C83.5425 30.996 83.1945 30.336 82.9305 29.592C82.6665 28.848 82.5345 28.08 82.5345 27.288Z" fill="white"/>
<path d="M100.197 33.876C100.341 32.844 100.485 31.836 100.629 30.852C100.773 29.868 100.917 28.992 101.061 28.224C100.725 28.704 100.365 29.172 99.981 29.628C99.597 30.06 99.213 30.444 98.829 30.78C98.445 31.116 98.061 31.392 97.677 31.608C97.293 31.8 96.921 31.896 96.561 31.896C96.177 31.896 95.793 31.824 95.409 31.68C95.049 31.536 94.689 31.356 94.329 31.14C93.993 30.9 93.681 30.648 93.393 30.384C93.129 30.096 92.889 29.832 92.673 29.592C92.433 29.328 92.277 29.052 92.205 28.764C92.133 28.476 92.097 28.188 92.097 27.9C92.097 26.964 92.181 25.92 92.349 24.768C92.541 23.616 92.781 22.44 93.069 21.24C93.381 20.04 93.717 18.852 94.077 17.676C94.437 16.5 94.797 15.408 95.157 14.4C95.421 14.328 95.721 14.292 96.057 14.292C96.465 14.292 96.849 14.316 97.209 14.364C97.593 14.388 97.917 14.46 98.181 14.58C98.469 14.676 98.697 14.82 98.865 15.012C99.033 15.204 99.117 15.456 99.117 15.768C99.117 16.152 98.985 16.74 98.721 17.532C98.481 18.324 98.193 19.308 97.857 20.484C97.545 21.636 97.233 22.992 96.921 24.552C96.609 26.112 96.381 27.864 96.237 29.808C97.005 29.376 97.737 28.728 98.433 27.864C99.129 26.976 99.801 25.932 100.449 24.732C101.097 23.508 101.709 22.152 102.285 20.664C102.885 19.152 103.449 17.556 103.977 15.876C104.073 15.468 104.157 15.132 104.229 14.868C104.325 14.604 104.397 14.364 104.445 14.148C104.949 14.148 105.429 14.184 105.885 14.256C106.341 14.328 106.737 14.448 107.073 14.616C107.433 14.76 107.721 14.952 107.937 15.192C108.153 15.408 108.261 15.684 108.261 16.02C108.261 16.356 108.201 16.764 108.081 17.244C107.961 17.7 107.745 18.396 107.433 19.332C107.073 20.412 106.773 21.396 106.533 22.284C106.293 23.172 106.065 24.036 105.849 24.876C105.657 25.692 105.477 26.532 105.309 27.396C105.165 28.26 104.997 29.196 104.805 30.204L104.697 31.284C105.681 30.612 106.653 29.772 107.613 28.764C108.597 27.732 109.581 26.4 110.565 24.768C110.661 24.6 110.829 24.516 111.069 24.516C111.357 24.516 111.633 24.624 111.897 24.84C112.185 25.032 112.269 25.26 112.149 25.524C111.645 26.532 111.117 27.42 110.565 28.188C110.037 28.932 109.461 29.616 108.837 30.24C108.213 30.864 107.529 31.44 106.785 31.968C106.065 32.496 105.273 33.036 104.409 33.588C104.169 35.46 103.869 37.2 103.509 38.808C103.149 40.416 102.681 41.796 102.105 42.948C101.529 44.124 100.809 45.048 99.945 45.72C99.105 46.392 98.049 46.728 96.777 46.728C96.129 46.728 95.457 46.584 94.761 46.296C94.065 46.032 93.441 45.66 92.889 45.18C92.337 44.724 91.881 44.196 91.521 43.596C91.161 43.02 90.981 42.408 90.981 41.76C90.981 41.016 91.269 40.296 91.845 39.6C92.445 38.904 93.201 38.22 94.113 37.548C95.025 36.9 96.021 36.264 97.101 35.64C98.181 35.04 99.213 34.452 100.197 33.876ZM95.877 44.82C96.525 44.556 97.065 44.076 97.497 43.38C97.953 42.708 98.325 41.94 98.613 41.076C98.925 40.236 99.165 39.384 99.333 38.52C99.525 37.68 99.669 36.948 99.765 36.324C99.093 36.732 98.385 37.164 97.641 37.62C96.897 38.1 96.213 38.592 95.589 39.096C94.989 39.6 94.485 40.116 94.077 40.644C93.693 41.196 93.501 41.748 93.501 42.3C93.501 42.804 93.717 43.26 94.149 43.668C94.581 44.1 95.157 44.484 95.877 44.82Z" fill="white"/>
</svg>
